HIERARCHY
ROOT Hips
{
	OFFSET 0.000000 0.000000 0.000000
	CHANNELS 6 Xposition Yposition Zposition Xrotation Yrotation Zrotation
	JOINT LeftUpLeg_virtual
	{
		OFFSET 0.000000 0.000000 0.000000
		CHANNELS 3 Xrotation Yrotation Zrotation
		JOINT LeftUpLeg
		{
			OFFSET 15.427100 -6.655098 0.678600
			CHANNELS 3 Xrotation Yrotation Zrotation
			JOINT LeftLeg
			{
				OFFSET 4.081073 -39.591068 13.024000
				CHANNELS 3 Xrotation Yrotation Zrotation
				JOINT LeftFoot
				{
					OFFSET -4.081074 -37.707932 -15.979700
					CHANNELS 3 Xrotation Yrotation Zrotation
					JOINT LeftToeBase
					{
						OFFSET 5.346399 -15.068900 20.645000
						CHANNELS 3 Xrotation Yrotation Zrotation
						JOINT LeftToe_End
						{
							OFFSET 2.754700 0.931300 11.300900
							CHANNELS 3 Xrotation Yrotation Zrotation
							End Site
							{
								OFFSET 0 0 0
							}
						}
					}
				}
			}
		}
	}
	JOINT RightUpLeg_virtual
	{
		OFFSET 0.000000 0.000000 0.000000
		CHANNELS 3 Xrotation Yrotation Zrotation
		JOINT RightUpLeg
		{
			OFFSET -15.569500 -6.655098 0.678600
			CHANNELS 3 Xrotation Yrotation Zrotation
			JOINT RightLeg
			{
				OFFSET -4.081825 -39.591045 13.023800
				CHANNELS 3 Xrotation Yrotation Zrotation
				JOINT RightFoot
				{
					OFFSET 4.081824 -37.707954 -15.979600
					CHANNELS 3 Xrotation Yrotation Zrotation
					JOINT RightToeBase
					{
						OFFSET -5.346400 -15.068900 20.645000
						CHANNELS 3 Xrotation Yrotation Zrotation
						JOINT RightToe_End
						{
							OFFSET -2.754700 0.931300 11.300900
							CHANNELS 3 Xrotation Yrotation Zrotation
							End Site
							{
								OFFSET 0 0 0
							}
						}
					}
				}
			}
		}
	}
	JOINT Spine_virtual
	{
		OFFSET 0.000000 0.000000 0.000000
		CHANNELS 3 Xrotation Yrotation Zrotation
		JOINT Spine
		{
			OFFSET -0.279200 12.230698 -2.892100
			CHANNELS 3 Xrotation Yrotation Zrotation
			JOINT Spine1
			{
				OFFSET -0.232667 10.192268 -1.242267
				CHANNELS 3 Xrotation Yrotation Zrotation
				JOINT Spine1_split
				{
					OFFSET -0.232667 10.192268 -1.242267
					CHANNELS 3 Xrotation Yrotation Zrotation
					JOINT Spine2
					{
						OFFSET -0.232667 10.192268 -1.242267
						CHANNELS 3 Xrotation Yrotation Zrotation
						JOINT Neck_virtual
						{
							OFFSET 0.000000 0.000000 0.000000
							CHANNELS 3 Xrotation Yrotation Zrotation
							JOINT Neck
							{
								OFFSET -0.418800 17.814194 8.416900
								CHANNELS 3 Xrotation Yrotation Zrotation
								JOINT Head
								{
									OFFSET 0.000000 7.031097 3.806800
									CHANNELS 3 Xrotation Yrotation Zrotation
									JOINT HeadTop_End
									{
										OFFSET 0.000000 24.646606 12.978600
										CHANNELS 3 Xrotation Yrotation Zrotation
										End Site
										{
											OFFSET 0 0 0
										}
									}
								}
							}
						}
						JOINT LeftShoulder_virtual
						{
							OFFSET 0.000000 0.000000 0.000000
							CHANNELS 3 Xrotation Yrotation Zrotation
							JOINT LeftShoulder
							{
								OFFSET 8.476499 7.247704 -3.868750
								CHANNELS 3 Xrotation Yrotation Zrotation
								JOINT LeftShoulder_split
								{
									OFFSET 8.476499 7.247704 -3.868750
									CHANNELS 3 Xrotation Yrotation Zrotation
									JOINT LeftArm
									{
										OFFSET 9.308998 -2.777710 0.208600
										CHANNELS 3 Xrotation Yrotation Zrotation
										JOINT LeftForeArm
										{
											OFFSET 29.972298 0.000000 0.000000
											CHANNELS 3 Xrotation Yrotation Zrotation
											JOINT LeftHand
											{
												OFFSET 26.026505 0.000000 0.000000
												CHANNELS 3 Xrotation Yrotation Zrotation
												End Site
												{
													OFFSET 0 0 0
												}
											}
										}
									}
								}
							}
						}
						JOINT RightShoulder_virtual
						{
							OFFSET 0.000000 0.000000 0.000000
							CHANNELS 3 Xrotation Yrotation Zrotation
							JOINT RightShoulder
							{
								OFFSET -7.570500 7.247704 -3.868750
								CHANNELS 3 Xrotation Yrotation Zrotation
								JOINT RightShoulder_split
								{
									OFFSET -7.570500 7.247704 -3.868750
									CHANNELS 3 Xrotation Yrotation Zrotation
									JOINT RightArm
									{
										OFFSET -9.308998 -2.777710 0.208500
										CHANNELS 3 Xrotation Yrotation Zrotation
										JOINT RightForeArm
										{
											OFFSET -29.972300 0.000000 0.000000
											CHANNELS 3 Xrotation Yrotation Zrotation
											JOINT RightHand
											{
												OFFSET -26.026505 0.000000 0.000000
												CHANNELS 3 Xrotation Yrotation Zrotation
												End Site
												{
													OFFSET 0 0 0
												}
											}
										}
									}
								}
							}
						}
					}
				}
			}
		}
	}
}
MOTION
Frames: 10
Frame Time: 0.03333333
17.196375 5.336716 0.188206 0.000000 0.000000 0.000000 -96.841673 68.336514 11.768798 -88.819425 18.917954 -7.716948 65.368052 29.510662 0.307209 28.553497 0.916259 17.411479 3.024756 1.273481 -2.314775 0.000000 0.000000 0.000000 -111.833986 72.600471 26.095590 -16.183191 -1.318725 13.280288 69.741511 -9.476681 -3.193847 8.708710 -4.962565 5.256762 -4.554716 0.850692 2.812125 0.000000 0.000000 0.000000 -92.701472 70.491732 4.563133 14.357835 -6.758996 -5.813534 11.798610 -4.317947 -5.004848 0.872429 -0.516049 0.538657 0.000000 0.000000 0.000000 9.750302 -5.570984 -3.540746 -3.232516 6.511339 -17.182779 -28.022371 14.583636 -14.667247 0.000000 0.000000 0.000000 10.205075 -4.874709 -4.195250 3.084903 -6.880225 30.872281 -3.549293 -0.021095 -0.998251 -89.020526 25.871338 -57.140365 2.509143 -29.983496 0.866039 0.000000 0.000000 0.000000 11.318253 -4.952207 -3.839200 5.458740 11.962400 -17.423551 14.922394 4.046584 -0.249996 -47.612023 33.648848 104.610487 176.380852 72.391092 -175.744032 0.000000 0.000000 0.000000 
17.164295 5.279572 0.079224 0.000000 0.000000 0.000000 -96.359913 68.319213 11.435207 -89.062566 19.127993 -7.667552 65.190133 29.451888 0.176469 28.432684 0.563675 17.500420 2.981159 1.256263 -2.136953 0.000000 0.000000 0.000000 -110.616737 72.444893 24.715320 -16.407638 -1.400304 13.330233 69.851054 -9.477018 -3.170794 8.793126 -4.878279 5.113467 -4.533448 0.882685 2.806866 0.000000 0.000000 0.000000 -92.048103 70.503378 4.187777 14.260792 -6.777995 -5.777942 11.803536 -4.399673 -4.943081 1.009738 -0.201466 0.413991 0.000000 0.000000 0.000000 9.622957 -5.673210 -3.505476 -3.143185 6.426722 -17.188612 -27.889059 14.277417 -14.704243 0.000000 0.000000 0.000000 10.237772 -4.963356 -4.089412 2.964539 -6.702628 30.602973 -3.103985 -0.266153 -0.521158 -89.018368 25.619655 -57.368835 2.417271 -30.227876 0.709398 0.000000 0.000000 0.000000 11.291550 -5.055112 -3.787160 5.440109 12.069872 -17.179889 15.260946 3.948687 -0.204005 -47.638787 33.665801 104.742617 176.531048 72.293290 -175.868150 0.000000 0.000000 0.000000 
17.128307 5.214027 -0.037468 0.000000 0.000000 0.000000 -95.878494 68.281592 11.024899 -89.360307 19.491961 -7.460032 65.099571 29.334252 -0.021805 28.123036 0.180704 17.729822 2.976804 1.239582 -1.999732 0.000000 0.000000 0.000000 -108.946886 72.271652 22.881431 -16.618595 -1.473450 13.378617 69.879904 -9.307125 -3.138673 9.021715 -4.688337 5.337891 -4.861456 0.887912 2.788427 0.000000 0.000000 0.000000 -91.492201 70.611042 3.970121 14.168940 -6.778843 -5.649933 11.771718 -4.487828 -4.835734 0.910609 0.174586 0.110503 0.000000 0.000000 0.000000 9.450402 -5.791244 -3.435561 -2.756777 6.239144 -17.338188 -27.716039 13.744606 -14.712262 0.000000 0.000000 0.000000 10.223187 -5.056366 -3.929101 2.776803 -6.470202 30.321880 -2.604318 -0.449915 0.107651 -88.817526 25.232739 -57.941075 2.485386 -29.874807 0.640384 0.000000 0.000000 0.000000 11.227847 -5.155100 -3.644919 5.358011 12.107678 -16.910508 15.426882 3.928522 -0.217153 -47.516321 33.969010 104.718213 176.571578 72.644594 -175.986654 0.000000 0.000000 0.000000 
17.057819 5.178040 -0.126228 0.000000 0.000000 0.000000 -95.625695 68.271661 10.794462 -89.626275 19.942636 -7.144935 65.141631 29.191569 -0.263684 27.645546 -0.164585 18.133169 3.040950 1.223013 -1.933249 0.000000 0.000000 0.000000 -107.241825 72.129216 21.092635 -16.664115 -1.522047 13.427103 69.717073 -9.086996 -3.157705 9.079894 -4.548574 5.713994 -5.278053 0.871130 2.781276 0.000000 0.000000 0.000000 -91.118555 70.852114 3.980229 14.107427 -6.734645 -5.478020 11.698785 -4.547591 -4.713906 0.760373 0.536253 -0.115822 0.000000 0.000000 0.000000 9.262572 -5.886018 -3.354429 -2.162379 5.935418 -17.608366 -27.532337 13.058160 -14.711019 0.000000 0.000000 0.000000 10.144551 -5.126864 -3.753396 2.574984 -6.246444 30.061462 -2.299396 -0.382582 0.547977 -88.591713 24.687215 -58.589732 2.666251 -29.090865 0.641199 0.000000 0.000000 0.000000 11.121004 -5.217620 -3.468362 5.263559 12.034639 -16.700675 15.305467 4.055474 -0.212084 -47.332538 34.534557 104.578181 176.583326 73.181010 -176.160114 0.000000 0.000000 0.000000 
16.993389 5.207092 -0.118824 0.000000 0.000000 0.000000 -95.475062 68.272631 10.673461 -89.831160 20.364824 -6.785495 65.278768 28.967252 -0.475950 27.109299 -0.517662 18.553497 3.171492 1.213103 -1.939756 0.000000 0.000000 0.000000 -105.782234 72.009434 19.651755 -16.522453 -1.527781 13.428341 69.453243 -8.901229 -3.212890 8.878410 -4.569386 6.083709 -5.430054 0.844125 2.815208 0.000000 0.000000 0.000000 -91.023909 71.173747 4.267749 14.074059 -6.635887 -5.309632 11.579437 -4.562895 -4.597990 0.737695 0.713952 -0.234566 0.000000 0.000000 0.000000 9.070384 -5.916717 -3.277736 -1.473937 5.553085 -17.957783 -27.408373 12.339403 -14.705237 0.000000 0.000000 0.000000 9.991699 -5.160076 -3.598824 2.418506 -6.118115 29.824871 -2.080179 0.051348 0.829864 -88.452049 23.919553 -59.074204 2.874002 -28.195642 0.656257 0.000000 0.000000 0.000000 10.951143 -5.221002 -3.304489 5.192650 11.899519 -16.537606 14.902481 4.243651 -0.191332 -47.019169 35.278552 104.336597 176.594213 73.651234 -176.361850 0.000000 0.000000 0.000000 
16.957655 5.288742 -0.164749 0.000000 0.000000 0.000000 -95.323083 68.248172 10.583809 -89.965496 20.706161 -6.482229 65.435746 28.681166 -0.606817 26.483278 -0.914977 18.975454 3.323985 1.203978 -1.957501 0.000000 0.000000 0.000000 -105.060993 71.962873 19.022000 -16.265575 -1.520095 13.328982 69.267318 -8.755036 -3.216918 8.674024 -4.750204 6.546585 -5.404699 0.812532 2.886348 0.000000 0.000000 0.000000 -91.181345 71.508905 4.802518 14.043848 -6.492474 -5.184682 11.416767 -4.535129 -4.510037 0.655669 0.596609 -0.254710 0.000000 0.000000 0.000000 8.916096 -5.872456 -3.210015 -0.826954 5.195269 -18.337159 -27.404433 11.680938 -14.697619 0.000000 0.000000 0.000000 9.767576 -5.138213 -3.502000 2.341699 -6.131963 29.604260 -1.945093 0.750658 0.822401 -88.456994 22.858749 -59.216176 3.098463 -27.520249 0.652922 0.000000 0.000000 0.000000 10.727599 -5.160552 -3.181696 5.178613 11.815857 -16.342582 14.373143 4.365299 -0.200369 -46.626543 36.074177 104.081073 176.650617 73.838668 -176.573941 0.000000 0.000000 0.000000 
16.937122 5.384102 -0.244324 0.000000 0.000000 0.000000 -95.325433 68.192957 10.635080 -90.006437 20.993527 -6.321840 65.560076 28.278885 -0.594282 25.792638 -1.379011 19.364302 3.449932 1.196467 -1.961667 0.000000 0.000000 0.000000 -105.358885 72.016135 19.439886 -16.026764 -1.517608 13.108539 69.231317 -8.536696 -3.168690 8.692260 -4.966286 7.446310 -5.646733 0.772755 2.946860 0.000000 0.000000 0.000000 -91.662129 71.807350 5.590695 14.036061 -6.334699 -5.121392 11.242377 -4.471797 -4.461826 0.605063 0.142456 -0.071586 0.000000 0.000000 0.000000 8.802808 -5.769452 -3.151032 -0.357761 4.929340 -18.712731 -27.501902 11.200532 -14.598438 0.000000 0.000000 0.000000 9.500792 -5.075415 -3.473751 2.334811 -6.287154 29.365647 -1.999073 1.544095 0.532569 -88.353722 21.483846 -59.140327 3.231266 -27.325449 0.586830 0.000000 0.000000 0.000000 10.462478 -5.054596 -3.100422 5.257201 11.939127 -16.026484 13.750007 4.337828 -0.233463 -46.221123 36.846634 103.811492 176.930122 73.677155 -176.910902 0.000000 0.000000 0.000000 
16.982502 5.465965 -0.304726 0.000000 0.000000 0.000000 -95.472856 68.165329 10.879819 -90.046899 21.232056 -6.304864 65.702766 27.765964 -0.454182 25.189623 -1.847257 19.663170 3.526518 1.194007 -1.995793 0.000000 0.000000 0.000000 -106.315057 72.086459 20.433679 -15.840202 -1.502351 12.802274 69.358187 -8.168187 -3.093909 8.796144 -5.154158 8.831879 -6.184606 0.736771 2.960836 0.000000 0.000000 0.000000 -92.388718 71.997318 6.449596 14.047984 -6.202260 -5.085716 11.082159 -4.404839 -4.453714 0.603131 -0.432869 0.046736 0.000000 0.000000 0.000000 8.721717 -5.648317 -3.089508 -0.162716 4.834853 -19.044179 -27.645512 10.895604 -14.325721 0.000000 0.000000 0.000000 9.226419 -4.995255 -3.512976 2.364740 -6.538430 29.029148 -2.100964 2.248027 0.214569 -88.107767 19.893329 -59.056022 3.332779 -27.541278 0.464413 0.000000 0.000000 0.000000 10.201768 -4.930632 -3.039450 5.419023 12.410261 -15.469448 13.085591 4.066340 -0.377351 -45.813262 37.412703 103.480924 177.446402 73.327395 -177.359700 0.000000 0.000000 0.000000 
17.068939 5.503380 -0.319103 0.000000 0.000000 0.000000 -95.809550 68.203687 11.352696 -90.093071 21.426182 -6.440858 65.968590 27.323267 -0.259835 24.760078 -2.147296 20.046421 3.483350 1.207708 -2.102494 0.000000 0.000000 0.000000 -107.468546 72.149993 21.549657 -15.642750 -1.520420 12.480136 69.543156 -7.767937 -2.967452 8.683115 -5.423395 10.405105 -6.533978 0.731567 2.933952 0.000000 0.000000 0.000000 -93.296388 72.063147 7.232443 14.088100 -6.105029 -5.043420 10.957542 -4.357620 -4.476551 0.584339 -0.865349 0.121704 0.000000 0.000000 0.000000 8.678626 -5.550307 -3.032100 -0.279057 4.941152 -19.367430 -27.691551 10.677899 -13.814350 0.000000 0.000000 0.000000 9.006104 -4.924156 -3.594865 2.395599 -6.815590 28.605211 -2.152835 2.737707 0.143430 -87.706404 18.327990 -59.025935 3.465878 -28.050568 0.392259 0.000000 0.000000 0.000000 9.986805 -4.823912 -2.988127 5.623341 13.164874 -14.780415 12.396734 3.714366 -0.704688 -45.441822 37.690995 102.974855 178.179609 73.031654 -177.934501 0.000000 0.000000 0.000000 
17.183033 5.490898 -0.292976 0.000000 0.000000 0.000000 -96.241327 68.298886 11.915408 -90.080592 21.564400 -6.764699 66.366107 27.118506 -0.033763 24.530092 -2.186808 20.690955 3.254797 1.247348 -2.299898 0.000000 0.000000 0.000000 -108.608067 72.150307 22.581949 -15.371727 -1.544237 12.192001 69.696159 -7.396910 -2.774260 8.123839 -5.854756 11.923832 -6.285640 0.762509 2.905133 0.000000 0.000000 0.000000 -94.378195 72.040601 7.978398 14.187032 -6.045035 -4.963608 10.881165 -4.336521 -4.513519 0.689845 -1.036937 0.145376 0.000000 0.000000 0.000000 8.642216 -5.495195 -2.995220 -0.638813 5.214532 -19.719005 -27.429562 10.562781 -13.016708 0.000000 0.000000 0.000000 8.882658 -4.889687 -3.685612 2.413524 -7.055176 28.124335 -2.205902 3.110799 0.404402 -87.358092 17.045946 -59.140921 3.568286 -28.383413 0.400471 0.000000 0.000000 0.000000 9.840016 -4.763677 -2.948737 5.854359 14.072805 -14.100495 11.655770 3.438305 -1.233236 -44.987963 37.654577 102.274324 179.084541 72.993139 -178.633926 0.000000 0.000000 0.000000 
